<svg width="107" height="71" viewBox="0 0 107 71" fill="none" xmlns="http://www.w3.org/2000/svg">
<path d="M11.1729 50.1361V45.8906C13.1034 45.6612 14.7748 45.2114 16.1869 44.541C17.5991 43.8707 19.0157 43.1885 20.4368 42.4943C21.8579 41.7971 23.4175 41.1745 25.1157 40.6263C26.8139 40.0811 28.8696 39.8085 31.2827 39.8085C33.7704 39.8085 35.8976 40.1243 37.6643 40.7559C39.431 41.3905 41.1396 42.0981 42.7901 42.8786C44.4406 43.6622 46.1045 44.3891 47.7818 45.0594C49.4621 45.7298 51.4105 46.0649 53.6271 46.0649C55.8436 46.0649 57.792 45.7298 59.4723 45.0594C61.1497 44.3891 62.8136 43.6622 64.4641 42.8786C66.1146 42.0951 67.8425 41.3875 69.6479 40.7559C71.4504 40.1243 73.5582 39.8085 75.9714 39.8085C78.4591 39.8085 80.5326 40.0811 82.192 40.6263C83.8545 41.1745 85.3962 41.7971 86.8173 42.4943C88.2384 43.1885 89.6595 43.8707 91.0806 44.541C92.5017 45.2114 94.1686 45.6612 96.0813 45.8906V50.1361C93.9958 49.9662 92.1755 49.5462 90.6203 48.8758C89.0652 48.2055 87.5487 47.5203 86.071 46.8202C84.5903 46.126 83.0769 45.4914 81.5306 44.9164C79.9844 44.3414 78.1313 44.0539 75.9714 44.0539C73.8859 44.0539 72.009 44.3697 70.3406 45.0013C68.6693 45.6359 67.0128 46.3435 65.3712 47.124C63.7297 47.9076 61.9868 48.6345 60.1427 49.3048C58.3015 49.9752 56.1296 50.3103 53.6271 50.3103C51.1245 50.3103 48.9511 49.9752 47.107 49.3048C45.2658 48.6345 43.5244 47.9076 41.8829 47.124C40.2443 46.3435 38.6072 45.6359 36.9716 45.0013C35.339 44.3697 33.4427 44.0539 31.2827 44.0539C29.1973 44.0539 27.3621 44.3414 25.7771 44.9164C24.1951 45.4914 22.6638 46.1275 21.1831 46.8246C19.7054 47.5218 18.189 48.2055 16.6338 48.8758C15.0786 49.5462 13.2583 49.9662 11.1729 50.1361ZM11.1729 33.0024V28.757C13.1034 28.5276 14.7748 28.0777 16.1869 27.4074C17.5991 26.7371 19.0157 26.0533 20.4368 25.3562C21.8579 24.6591 23.4175 24.0379 25.1157 23.4927C26.8139 22.9445 28.8696 22.6704 31.2827 22.6704C33.7704 22.6704 35.8976 22.9877 37.6643 23.6223C39.431 24.2539 41.1396 24.9614 42.7901 25.745C44.4406 26.5256 46.1045 27.251 47.7818 27.9213C49.4621 28.5917 51.4105 28.9268 53.6271 28.9268C55.8436 28.9268 57.792 28.5917 59.4723 27.9213C61.1497 27.251 62.8136 26.5256 64.4641 25.745C66.1146 24.9644 67.8425 24.2569 69.6479 23.6223C71.4504 22.9877 73.5582 22.6704 75.9714 22.6704C78.4591 22.6704 80.5326 22.9445 82.192 23.4927C83.8545 24.0379 85.3962 24.6591 86.8173 25.3562C88.2384 26.0533 89.6595 26.7371 91.0806 27.4074C92.5017 28.0777 94.1686 28.5276 96.0813 28.757V33.0024C93.9958 32.8296 92.1755 32.4081 90.6203 31.7377C89.0652 31.0674 87.5487 30.3837 86.071 29.6865C84.5903 28.9924 83.0769 28.3563 81.5306 27.7783C79.9844 27.2033 78.1313 26.9158 75.9714 26.9158C73.8859 26.9158 72.009 27.2331 70.3406 27.8677C68.6693 28.4993 67.0128 29.2069 65.3712 29.9904C63.7297 30.771 61.9868 31.4964 60.1427 32.1667C58.3015 32.8371 56.1296 33.1722 53.6271 33.1722C51.1245 33.1722 48.9511 32.8371 47.107 32.1667C45.2658 31.4964 43.5244 30.771 41.8829 29.9904C40.2443 29.2069 38.6072 28.4993 36.9716 27.8677C35.339 27.2331 33.4427 26.9158 31.2827 26.9158C29.1973 26.9158 27.3621 27.2033 25.7771 27.7783C24.1921 28.3533 22.6608 28.9894 21.1831 29.6865C19.7054 30.3837 18.189 31.0674 16.6338 31.7377C15.0786 32.4081 13.2583 32.8296 11.1729 33.0024Z" fill="#FDFBE8"/>
</svg>
