<svg width="316" height="140" viewBox="0 0 316 140" fill="none" xmlns="http://www.w3.org/2000/svg">
<path d="M315.5 70C315.5 79.5017 311.156 88.5917 303.222 96.9019C295.286 105.215 283.778 112.723 269.52 119.04C241.005 131.674 201.577 139.5 158 139.5C114.423 139.5 74.9945 131.674 46.4797 119.04C32.2216 112.723 20.7142 105.215 12.7781 96.9019C4.84443 88.5917 0.5 79.5017 0.5 70C0.5 60.4983 4.84443 51.4083 12.7781 43.0981C20.7142 34.7854 32.2216 27.2765 46.4797 20.9597C74.9945 8.32649 114.423 0.5 158 0.5C201.577 0.5 241.005 8.32649 269.52 20.9597C283.778 27.2765 295.286 34.7854 303.222 43.0981C311.156 51.4083 315.5 60.4983 315.5 70Z" stroke="#8AFFFF"/>
</svg>
