<svg width="40" height="40" viewBox="0 0 40 40" fill="none" xmlns="http://www.w3.org/2000/svg">
<path d="M20.0863 24.7149L22.443 27.0716L29.5163 19.9999L22.4446 12.9282L20.088 15.2866L23.133 18.3332H10.5713V21.6666H23.133L20.0863 24.7149Z" fill="#1663B1"/>
<path fill-rule="evenodd" clip-rule="evenodd" d="M1.6665 31.6665C1.6665 33.4346 2.36888 35.1303 3.61913 36.3805C4.86937 37.6308 6.56506 38.3332 8.33317 38.3332H31.6665C33.4346 38.3332 35.1303 37.6308 36.3805 36.3805C37.6308 35.1303 38.3332 33.4346 38.3332 31.6665V8.33317C38.3332 6.56506 37.6308 4.86937 36.3805 3.61913C35.1303 2.36888 33.4346 1.6665 31.6665 1.6665H8.33317C6.56506 1.6665 4.86937 2.36888 3.61913 3.61913C2.36888 4.86937 1.6665 6.56506 1.6665 8.33317V31.6665ZM8.33317 34.9998H31.6665C32.5506 34.9998 33.3984 34.6486 34.0235 34.0235C34.6486 33.3984 34.9998 32.5506 34.9998 31.6665V8.33317C34.9998 7.44911 34.6486 6.60127 34.0235 5.97615C33.3984 5.35103 32.5506 4.99984 31.6665 4.99984H8.33317C7.44911 4.99984 6.60127 5.35103 5.97615 5.97615C5.35103 6.60127 4.99984 7.44911 4.99984 8.33317V31.6665C4.99984 32.5506 5.35103 33.3984 5.97615 34.0235C6.60127 34.6486 7.44911 34.9998 8.33317 34.9998Z" fill="#1663B1"/>
</svg>
