<svg width="86" height="94" viewBox="0 0 86 94" fill="none" xmlns="http://www.w3.org/2000/svg">
<rect width="86" height="94" rx="18" fill="#C0DDEB"/>
<path d="M18.42 21.46C16.8333 21.38 15.66 21.3333 14.9 21.32V28.16C15.6733 28.1467 16.8467 28.1 18.42 28.02V32H6.8V28.02C8.33333 28.1 9.5 28.1467 10.3 28.16V21.32C9.5 21.3333 8.33333 21.38 6.8 21.46V17.48H18.42V21.46ZM24.0266 30.28C24.4799 29.6 24.8532 28.9667 25.1466 28.38C25.4532 27.7933 25.7466 27.1133 26.0266 26.34C26.9732 26.8867 28.0732 27.3133 29.3266 27.62C30.5799 27.9267 31.7466 28.08 32.8266 28.08C33.9332 28.08 34.7132 27.9867 35.1666 27.8C35.6199 27.6 35.8466 27.3867 35.8466 27.16C35.8466 26.3467 34.6066 25.94 32.1266 25.94C29.4066 25.94 27.4332 25.66 26.2066 25.1C24.9799 24.5267 24.3666 23.6067 24.3666 22.34C24.3666 20.54 25.1132 19.2133 26.6066 18.36C28.0999 17.5067 30.0399 17.08 32.4266 17.08C33.8132 17.08 35.2332 17.26 36.6866 17.62C38.1532 17.9667 39.4732 18.4467 40.6466 19.06C40.2599 19.94 39.8532 21.0133 39.4266 22.28C39.3466 22.5467 39.2799 22.7467 39.2266 22.88C38.5466 22.3333 37.5199 21.88 36.1466 21.52C34.7732 21.1467 33.5599 20.96 32.5066 20.96C31.2399 20.96 30.3866 21.0467 29.9466 21.22C29.5066 21.38 29.2866 21.62 29.2866 21.94C29.2866 22.26 29.5866 22.52 30.1866 22.72C30.7999 22.9067 31.6799 23 32.8266 23C35.6532 23 37.7066 23.3267 38.9866 23.98C40.2666 24.62 40.9066 25.6067 40.9066 26.94C40.9066 28.8067 40.2266 30.1533 38.8666 30.98C37.5066 31.7933 35.4466 32.2 32.6866 32.2C31.2066 32.2 29.6999 32.04 28.1666 31.72C26.6332 31.3867 25.2532 30.9067 24.0266 30.28ZM47.2231 28.34C52.2898 28.3133 55.9631 28.24 58.2431 28.12C58.1498 28.6667 58.0898 29.2333 58.0631 29.82C58.0498 30.3933 58.0431 31.12 58.0431 32H42.5031C42.6098 29.4133 42.6631 26.9933 42.6631 24.74C42.6631 22.4867 42.6098 20.0667 42.5031 17.48H58.0431V21.1H47.2231V23.02C47.8631 23.0333 48.8098 23.04 50.0631 23.04C52.1831 23.04 54.3765 23 56.6431 22.92V26.36C54.3765 26.28 52.1831 26.24 50.0631 26.24C48.8098 26.24 47.8631 26.2467 47.2231 26.26V28.34ZM64.5669 28.34C69.6335 28.3133 73.3069 28.24 75.5869 28.12C75.4935 28.6667 75.4335 29.2333 75.4069 29.82C75.3935 30.3933 75.3869 31.12 75.3869 32H59.8469C59.9535 29.4133 60.0069 26.9933 60.0069 24.74C60.0069 22.4867 59.9535 20.0667 59.8469 17.48H75.3869V21.1H64.5669V23.02C65.2069 23.0333 66.1535 23.04 67.4069 23.04C69.5269 23.04 71.7202 23 73.9869 22.92V26.36C71.7202 26.28 69.5269 26.24 67.4069 26.24C66.1535 26.24 65.2069 26.2467 64.5669 26.26V28.34ZM24.6 41.48L24.22 42.06C22.7933 44.2733 21.5667 46.2333 20.54 47.94C19.5267 49.6333 18.68 51.1933 18 52.62V56H12.78V52.28C12.2867 51.28 11.7067 50.2533 11.04 49.2C10.3733 48.1333 9.42667 46.6733 8.2 44.82C7.24 43.4067 6.50667 42.2933 6 41.48H11.6C12 42.2933 12.6533 43.5 13.56 45.1C14.4667 46.7267 15.0867 47.8733 15.42 48.54C15.8867 47.5667 16.5133 46.3733 17.3 44.96C18.22 43.3067 18.84 42.1467 19.16 41.48H24.6ZM33.3758 56.2C30.3224 56.2 28.0758 55.54 26.6358 54.22C25.1958 52.8867 24.4758 51.02 24.4758 48.62C24.4758 46.2467 25.1891 44.3933 26.6158 43.06C28.0558 41.7267 30.3091 41.06 33.3758 41.06C36.4558 41.06 38.7091 41.7267 40.1358 43.06C41.5758 44.3933 42.2958 46.2467 42.2958 48.62C42.2958 51.0333 41.5824 52.9 40.1558 54.22C38.7291 55.54 36.4691 56.2 33.3758 56.2ZM33.3758 52.12C34.8558 52.12 35.9224 51.84 36.5758 51.28C37.2291 50.7067 37.5558 49.82 37.5558 48.62C37.5558 47.4467 37.2291 46.5733 36.5758 46C35.9224 45.4267 34.8558 45.14 33.3758 45.14C31.9091 45.14 30.8491 45.4267 30.1958 46C29.5424 46.5733 29.2158 47.4467 29.2158 48.62C29.2158 49.8067 29.5424 50.6867 30.1958 51.26C30.8491 51.8333 31.9091 52.12 33.3758 52.12ZM55.7298 41.46H60.6898V49.42C60.6632 51.38 59.9898 53 58.6698 54.28C57.3632 55.56 55.1565 56.2 52.0498 56.2C48.9032 56.2 46.7498 55.5933 45.5898 54.38C44.4298 53.1533 43.8632 51.5467 43.8898 49.56V41.46H48.8498V49.24C48.8498 49.8267 48.8898 50.3067 48.9698 50.68C49.0632 51.04 49.3432 51.38 49.8098 51.7C50.2898 52.02 51.0565 52.18 52.1098 52.18C53.2565 52.18 54.0965 52.02 54.6298 51.7C55.1632 51.3667 55.4765 51 55.5698 50.6C55.6765 50.2 55.7298 49.6867 55.7298 49.06V41.46ZM78.3483 46.32C78.3483 47.48 78.0616 48.46 77.4883 49.26C76.9283 50.06 75.9616 50.64 74.5883 51C74.7483 51.2133 74.8616 51.38 74.9283 51.5L78.1683 56H72.7283C72.1416 54.9067 71.2149 53.36 69.9483 51.36H67.0083V56H62.2883C62.3949 53.4133 62.4483 50.9933 62.4483 48.74C62.4483 46.4867 62.3949 44.0667 62.2883 41.48H67.0083V41.5H71.1083C73.8016 41.5 75.6816 41.9333 76.7483 42.8C77.8149 43.6667 78.3483 44.84 78.3483 46.32ZM67.0083 45.34V47.62H69.7083C70.8416 47.62 71.6949 47.5867 72.2683 47.52C72.8549 47.44 73.2616 47.32 73.4883 47.16C73.7149 47 73.8283 46.7667 73.8283 46.46C73.8283 46.1667 73.7216 45.94 73.5083 45.78C73.2949 45.62 72.8949 45.5067 72.3083 45.44C71.7216 45.3733 70.8549 45.34 69.7083 45.34H67.0083ZM6.8 78.28C7.25333 77.6 7.62667 76.9667 7.92 76.38C8.22667 75.7933 8.52 75.1133 8.8 74.34C9.74667 74.8867 10.8467 75.3133 12.1 75.62C13.3533 75.9267 14.52 76.08 15.6 76.08C16.7067 76.08 17.4867 75.9867 17.94 75.8C18.3933 75.6 18.62 75.3867 18.62 75.16C18.62 74.3467 17.38 73.94 14.9 73.94C12.18 73.94 10.2067 73.66 8.98 73.1C7.75333 72.5267 7.14 71.6067 7.14 70.34C7.14 68.54 7.88667 67.2133 9.38 66.36C10.8733 65.5067 12.8133 65.08 15.2 65.08C16.5867 65.08 18.0067 65.26 19.46 65.62C20.9267 65.9667 22.2467 66.4467 23.42 67.06C23.0333 67.94 22.6267 69.0133 22.2 70.28C22.12 70.5467 22.0533 70.7467 22 70.88C21.32 70.3333 20.2933 69.88 18.92 69.52C17.5467 69.1467 16.3333 68.96 15.28 68.96C14.0133 68.96 13.16 69.0467 12.72 69.22C12.28 69.38 12.06 69.62 12.06 69.94C12.06 70.26 12.36 70.52 12.96 70.72C13.5733 70.9067 14.4533 71 15.6 71C18.4267 71 20.48 71.3267 21.76 71.98C23.04 72.62 23.68 73.6067 23.68 74.94C23.68 76.8067 23 78.1533 21.64 78.98C20.28 79.7933 18.22 80.2 15.46 80.2C13.98 80.2 12.4733 80.04 10.94 79.72C9.40667 79.3867 8.02667 78.9067 6.8 78.28ZM29.9966 76.34C35.0632 76.3133 38.7366 76.24 41.0166 76.12C40.9232 76.6667 40.8632 77.2333 40.8366 77.82C40.8232 78.3933 40.8166 79.12 40.8166 80H25.2766C25.3832 77.4133 25.4366 74.9933 25.4366 72.74C25.4366 70.4867 25.3832 68.0667 25.2766 65.48H40.8166V69.1H29.9966V71.02C30.6366 71.0333 31.5832 71.04 32.8366 71.04C34.9566 71.04 37.1499 71 39.4166 70.92V74.36C37.1499 74.28 34.9566 74.24 32.8366 74.24C31.5832 74.24 30.6366 74.2467 29.9966 74.26V76.34ZM54.0489 80C53.7956 79.24 53.4556 78.2867 53.0289 77.14H46.6489L45.6489 80H40.6289L46.2289 65.48H53.5889L59.2289 80H54.0489ZM51.8889 74.02C51.3822 72.62 50.8622 71.22 50.3289 69.82L49.8489 68.52C49.3822 69.7333 48.6956 71.5667 47.7889 74.02H51.8889Z" fill="#3E5E8E"/>
</svg>
