<svg width="64" height="64" viewBox="0 0 64 64" fill="none" xmlns="http://www.w3.org/2000/svg">
<path d="M6.66699 50.3681V47.8347C7.81899 47.6996 8.81633 47.4321 9.65899 47.0321C10.5017 46.6321 11.347 46.2232 12.195 45.8054C13.043 45.3912 13.9737 45.0214 14.987 44.6961C16.0003 44.369 17.227 44.2054 18.667 44.2054C20.1514 44.2054 21.4208 44.3939 22.475 44.7707C23.5292 45.1494 24.5488 45.5716 25.5337 46.0374C26.5185 46.505 27.5114 46.9387 28.5123 47.3387C29.515 47.7387 30.6777 47.9387 32.0003 47.9387C33.323 47.9387 34.4857 47.7387 35.4883 47.3387C36.4892 46.9387 37.4821 46.505 38.467 46.0374C39.4519 45.5699 40.483 45.1476 41.5603 44.7707C42.6359 44.3939 43.8937 44.2054 45.3337 44.2054C46.8181 44.2054 48.0554 44.369 49.0457 44.6961C50.0377 45.0214 50.9577 45.3921 51.8057 45.8081C52.6537 46.2241 53.5017 46.6321 54.3497 47.0321C55.1977 47.4321 56.1923 47.6996 57.3337 47.8347V50.3681C56.0892 50.2667 55.003 50.0161 54.075 49.6161C53.147 49.2161 52.2421 48.8081 51.3603 48.3921C50.4768 47.9761 49.5737 47.5965 48.651 47.2534C47.7283 46.9103 46.6225 46.7387 45.3337 46.7387C44.0892 46.7387 42.9692 46.9272 41.9737 47.3041C40.9763 47.6827 39.9879 48.105 39.0083 48.5707C38.0288 49.0383 36.9888 49.4721 35.8883 49.8721C34.7897 50.2721 33.4937 50.4721 32.0003 50.4721C30.507 50.4721 29.2101 50.2721 28.1097 49.8721C27.011 49.4721 25.9719 49.0383 24.9923 48.5707C24.0145 48.105 23.0377 47.6827 22.0617 47.3041C21.0874 46.9272 19.9559 46.7387 18.667 46.7387C17.4225 46.7387 16.3274 46.9103 15.3817 47.2534C14.4359 47.5965 13.5221 47.9761 12.6403 48.3921C11.7585 48.8081 10.8537 49.2161 9.92566 49.6161C8.99766 50.0161 7.91144 50.2667 6.66699 50.3681ZM6.66699 40.1441V37.6107C7.81899 37.4739 8.81633 37.2054 9.65899 36.8054C10.5017 36.4054 11.347 35.9974 12.195 35.5814C13.043 35.1672 13.9737 34.7965 14.987 34.4694C16.0003 34.1423 17.227 33.9787 18.667 33.9787C20.1514 33.9787 21.4208 34.1681 22.475 34.5467C23.5292 34.9236 24.5488 35.3459 25.5337 35.8134C26.5185 36.2792 27.5114 36.7121 28.5123 37.1121C29.515 37.5121 30.6777 37.7121 32.0003 37.7121C33.323 37.7121 34.4857 37.5121 35.4883 37.1121C36.4892 36.7121 37.4821 36.2792 38.467 35.8134C39.4519 35.3476 40.483 34.9254 41.5603 34.5467C42.6359 34.1681 43.8937 33.9787 45.3337 33.9787C46.8181 33.9787 48.0554 34.1423 49.0457 34.4694C50.0377 34.7965 50.9577 35.1672 51.8057 35.5814C52.6537 35.9974 53.5017 36.4054 54.3497 36.8054C55.1977 37.2054 56.1923 37.4739 57.3337 37.6107V40.1441C56.0892 40.041 55.003 39.7894 54.075 39.3894C53.147 38.9894 52.2421 38.5814 51.3603 38.1654C50.4768 37.7512 49.5737 37.3725 48.651 37.0294C47.7283 36.6845 46.6225 36.5121 45.3337 36.5121C44.0785 36.5121 42.9532 36.7014 41.9577 37.0801C40.9621 37.457 39.9737 37.8792 38.9923 38.3467C38.0145 38.8125 36.9781 39.2454 35.883 39.6454C34.7879 40.0454 33.4937 40.2454 32.0003 40.2454C30.507 40.2454 29.2101 40.0454 28.1097 39.6454C27.011 39.2454 25.9719 38.8125 24.9923 38.3467C24.0145 37.8792 23.0377 37.457 22.0617 37.0801C21.0874 36.7014 19.9559 36.5121 18.667 36.5121C17.4225 36.5121 16.3274 36.6845 15.3817 37.0294C14.4377 37.3725 13.5239 37.7521 12.6403 38.1681C11.7585 38.5823 10.8537 38.9894 9.92566 39.3894C8.99766 39.7894 7.91144 40.041 6.66699 40.1441ZM6.66699 29.9174V27.3841C7.81899 27.2472 8.81633 26.9787 9.65899 26.5787C10.5017 26.1787 11.347 25.7716 12.195 25.3574C13.043 24.9414 13.9737 24.5699 14.987 24.2427C16.0003 23.9174 17.227 23.7547 18.667 23.7547C20.1514 23.7547 21.4208 23.9432 22.475 24.3201C23.5292 24.6987 24.5488 25.121 25.5337 25.5867C26.5185 26.0543 27.5114 26.4881 28.5123 26.8881C29.515 27.2881 30.6777 27.4881 32.0003 27.4881C33.323 27.4881 34.4857 27.2881 35.4883 26.8881C36.4892 26.4881 37.4821 26.0543 38.467 25.5867C39.4519 25.1192 40.483 24.697 41.5603 24.3201C42.6359 23.9432 43.8937 23.7547 45.3337 23.7547C46.8181 23.7547 48.0554 23.9174 49.0457 24.2427C50.0377 24.5699 50.9577 24.9414 51.8057 25.3574C52.6537 25.7716 53.5017 26.1787 54.3497 26.5787C55.1977 26.9787 56.1923 27.2472 57.3337 27.3841V29.9174C56.0892 29.8161 55.003 29.5654 54.075 29.1654C53.147 28.7654 52.2421 28.3565 51.3603 27.9387C50.4768 27.5245 49.5737 27.1459 48.651 26.8027C47.7283 26.4596 46.6225 26.2881 45.3337 26.2881C44.0892 26.2881 42.9692 26.4765 41.9737 26.8534C40.9763 27.2321 39.9879 27.6543 39.0083 28.1201C38.0288 28.5876 36.9888 29.0214 35.8883 29.4214C34.7897 29.8214 33.4937 30.0214 32.0003 30.0214C30.507 30.0214 29.2101 29.8214 28.1097 29.4214C27.011 29.0214 25.9719 28.5876 24.9923 28.1201C24.0145 27.6543 23.0377 27.2321 22.0617 26.8534C21.0874 26.4765 19.9559 26.2881 18.667 26.2881C17.4225 26.2881 16.3274 26.4596 15.3817 26.8027C14.4377 27.1459 13.5239 27.5254 12.6403 27.9414C11.7585 28.3574 10.8537 28.7654 9.92566 29.1654C8.99766 29.5654 7.91144 29.8161 6.66699 29.9174ZM6.66699 19.6934V17.1601C7.81899 17.0232 8.81633 16.7547 9.65899 16.3547C10.5017 15.9547 11.347 15.5467 12.195 15.1307C13.043 14.7147 13.9737 14.3441 14.987 14.0187C16.0003 13.6916 17.227 13.5281 18.667 13.5281C20.1514 13.5281 21.4208 13.7174 22.475 14.0961C23.5292 14.473 24.5488 14.8952 25.5337 15.3627C26.5185 15.8285 27.5114 16.2614 28.5123 16.6614C29.515 17.0614 30.6777 17.2614 32.0003 17.2614C33.323 17.2614 34.4857 17.0614 35.4883 16.6614C36.4892 16.2614 37.4821 15.8285 38.467 15.3627C39.4519 14.897 40.483 14.4747 41.5603 14.0961C42.6359 13.7174 43.8937 13.5281 45.3337 13.5281C46.8181 13.5281 48.0554 13.6916 49.0457 14.0187C50.0377 14.3441 50.9577 14.7147 51.8057 15.1307C52.6537 15.5467 53.5017 15.9547 54.3497 16.3547C55.1977 16.7547 56.1923 17.0232 57.3337 17.1601V19.6934C56.0892 19.5903 55.003 19.3387 54.075 18.9387C53.147 18.5387 52.2421 18.1307 51.3603 17.7147C50.4768 17.3005 49.5737 16.921 48.651 16.5761C47.7283 16.233 46.6225 16.0614 45.3337 16.0614C44.0892 16.0614 42.9692 16.2507 41.9737 16.6294C40.9763 17.0063 39.9879 17.4285 39.0083 17.8961C38.0288 18.3619 36.9888 18.7947 35.8883 19.1947C34.7897 19.5947 33.4937 19.7947 32.0003 19.7947C30.507 19.7947 29.2101 19.5947 28.1097 19.1947C27.011 18.7947 25.9719 18.3619 24.9923 17.8961C24.0145 17.4285 23.0377 17.0063 22.0617 16.6294C21.0874 16.2507 19.9559 16.0614 18.667 16.0614C17.4225 16.0614 16.3274 16.233 15.3817 16.5761C14.4359 16.9192 13.5221 17.2987 12.6403 17.7147C11.7585 18.1307 10.8537 18.5387 9.92566 18.9387C8.99766 19.3387 7.91144 19.5903 6.66699 19.6934Z" fill="#1663B1"/>
</svg>
